<svg width="150" height="30" viewBox="0 0 150 30" fill="none" xmlns="http://www.w3.org/2000/svg">
<path d="M23.9949 3.25165V29.4143H17.9401V18.6876H6.05479V29.4143H0V3.25165H6.05479V13.5672H17.9401V3.25165H23.9949Z" fill="#F5F5F5"/>
<path d="M37.6599 25.0414C38.7064 25.0414 39.6284 24.8919 40.4257 24.5929C41.248 24.269 42.0079 23.7707 42.7056 23.0979L45.8077 26.4617C43.9141 28.6294 41.1483 29.7133 37.5104 29.7133C35.243 29.7133 33.2372 29.2773 31.493 28.4052C29.7488 27.5082 28.4033 26.2748 27.4565 24.705C26.5097 23.1353 26.0362 21.3537 26.0362 19.3604C26.0362 17.3919 26.4972 15.6229 27.4191 14.0531C28.366 12.4584 29.6492 11.225 31.2688 10.3529C32.9133 9.45594 34.7571 9.00744 36.8003 9.00744C38.7189 9.00744 40.4631 9.41856 42.0328 10.2408C43.6026 11.0382 44.8484 12.2092 45.7704 13.7541C46.7172 15.274 47.1906 17.0805 47.1906 19.1735L32.3153 22.0514C32.7389 23.0481 33.3992 23.7956 34.2962 24.2939C35.2181 24.7922 36.3394 25.0414 37.6599 25.0414ZM36.8003 13.4177C35.3302 13.4177 34.1342 13.8911 33.2123 14.838C32.2904 15.7848 31.8045 17.0929 31.7547 18.7624L41.547 16.8562C41.2729 15.8097 40.7123 14.975 39.8651 14.3521C39.0179 13.7292 37.9963 13.4177 36.8003 13.4177Z" fill="#F5F5F5"/>
<path d="M69.3489 1.68189V29.4143H63.78V27.0971C62.3348 28.8412 60.2418 29.7133 57.5009 29.7133C55.6073 29.7133 53.888 29.2897 52.3432 28.4426C50.8232 27.5954 49.6272 26.3869 48.7551 24.8172C47.883 23.2474 47.447 21.4285 47.447 19.3604C47.447 17.2923 47.883 15.4734 48.7551 13.9036C49.6272 12.3338 50.8232 11.1254 52.3432 10.2782C53.888 9.43102 55.6073 9.00744 57.5009 9.00744C60.0674 9.00744 62.0732 9.81723 63.5184 11.4368V1.68189H69.3489ZM58.5101 24.9293C59.9802 24.9293 61.2011 24.431 62.1729 23.4343C63.1446 22.4127 63.6305 21.0547 63.6305 19.3604C63.6305 17.666 63.1446 16.3205 62.1729 15.3239C61.2011 14.3023 59.9802 13.7915 58.5101 13.7915C57.0151 13.7915 55.7817 14.3023 54.8099 15.3239C53.8382 16.3205 53.3523 17.666 53.3523 19.3604C53.3523 21.0547 53.8382 22.4127 54.8099 23.4343C55.7817 24.431 57.0151 24.9293 58.5101 24.9293Z" fill="#F5F5F5"/>
<path d="M79.7161 29.7133C77.4487 29.7133 75.6796 29.1153 74.4089 27.9193C73.1381 26.6984 72.5027 24.9791 72.5027 22.7615V1.68189H78.3333V22.4251C78.3333 23.2723 78.5451 23.9326 78.9686 24.406C79.4171 24.8545 80.0401 25.0788 80.8374 25.0788C81.1364 25.0788 81.4354 25.0414 81.7344 24.9667C82.0583 24.8919 82.3075 24.8047 82.4819 24.705L82.7435 29.2274C81.7718 29.5514 80.7627 29.7133 79.7161 29.7133Z" fill="#F5F5F5"/>
<path d="M83.3634 9.30644H89.194V29.4143H83.3634V9.30644ZM86.2787 6.50329C85.2073 6.50329 84.3352 6.19183 83.6624 5.56891C82.9897 4.94599 82.6533 4.17357 82.6533 3.25165C82.6533 2.32972 82.9897 1.5573 83.6624 0.934382C84.3352 0.311461 85.2073 0 86.2787 0C87.3501 0 88.2222 0.299003 88.895 0.897008C89.5677 1.49501 89.9041 2.24252 89.9041 3.13952C89.9041 4.11128 89.5677 4.92108 88.895 5.56891C88.2222 6.19183 87.3501 6.50329 86.2787 6.50329Z" fill="#F5F5F5"/>
<path d="M104.584 9.00744C107.076 9.00744 109.082 9.75494 110.602 11.25C112.147 12.745 112.919 14.9626 112.919 17.9027V29.4143H107.089V18.7998C107.089 17.2051 106.74 16.0215 106.042 15.2491C105.344 14.4518 104.335 14.0531 103.015 14.0531C101.545 14.0531 100.373 14.5141 99.5014 15.436C98.6293 16.333 98.1932 17.6785 98.1932 19.4725V29.4143H92.3627V9.30644H97.9316V11.6611C98.704 10.8139 99.6633 10.1661 100.81 9.71757C101.956 9.24415 103.214 9.00744 104.584 9.00744Z" fill="#F5F5F5"/>
<path d="M126.309 25.0414C127.356 25.0414 128.278 24.8919 129.075 24.5929C129.897 24.269 130.657 23.7707 131.355 23.0979L134.457 26.4617C132.563 28.6294 129.798 29.7133 126.16 29.7133C123.892 29.7133 121.887 29.2773 120.142 28.4052C118.398 27.5082 117.053 26.2748 116.106 24.705C115.159 23.1353 114.686 21.3537 114.686 19.3604C114.686 17.3919 115.147 15.6229 116.069 14.0531C117.015 12.4584 118.299 11.225 119.918 10.3529C121.563 9.45594 123.407 9.00744 125.45 9.00744C127.368 9.00744 129.112 9.41856 130.682 10.2408C132.252 11.0382 133.498 12.2092 134.42 13.7541C135.367 15.274 135.84 17.0805 135.84 19.1735L120.965 22.0514C121.388 23.0481 122.049 23.7956 122.946 24.2939C123.868 24.7922 124.989 25.0414 126.309 25.0414ZM125.45 13.4177C123.98 13.4177 122.784 13.8911 121.862 14.838C120.94 15.7848 120.454 17.0929 120.404 18.7624L130.196 16.8562C129.922 15.8097 129.362 14.975 128.514 14.3521C127.667 13.7292 126.646 13.4177 125.45 13.4177Z" fill="#F5F5F5"/>
<path d="M143.086 11.9601C143.783 10.9883 144.718 10.2533 145.889 9.75494C147.085 9.2566 148.455 9.00744 150 9.00744V14.3895C149.352 14.3396 148.916 14.3147 148.692 14.3147C147.022 14.3147 145.714 14.7881 144.767 15.735C143.821 16.6569 143.347 18.0522 143.347 19.921V29.4143H137.517V9.30644H143.086V11.9601Z" fill="#F5F5F5"/>
</svg>
