<svg width="193" height="28" viewBox="0 0 193 28" fill="none" xmlns="http://www.w3.org/2000/svg">
<g id="Group">
<path id="Vector" d="M125.356 24.0943C123.632 26.221 121.935 27.3714 119.378 27.3714C116.101 27.3714 113.685 25.5294 113.685 22.11C113.685 15.9861 120.527 15.5558 124.954 15.5558H126.679C126.823 14.9814 126.823 14.551 126.823 13.975C126.823 12.133 124.839 11.5602 123.114 11.5602C120.987 11.5602 118.975 12.1346 117.136 12.997L117.856 9.14554C119.84 8.42548 121.995 7.9951 124.122 7.9951C127.831 7.9951 131.251 9.43191 131.251 13.6886C131.251 16.1033 129.409 23.376 128.98 26.7971H124.985L125.356 24.0943ZM120.644 23.8063C124.211 23.8063 125.358 21.3916 126.048 18.4025H124.323C122.052 18.4025 118.199 18.8345 118.199 21.9693C118.228 23.2336 119.378 23.8113 120.644 23.8113V23.8063ZM1.34359 8.54436H4.92715L5.78955 4.6929L10.9355 2.96811L9.64103 8.5159H13.8944L13.1743 12.0827H8.92097L7.19617 20.0737C7.00993 20.6696 6.91288 21.2897 6.90815 21.914C6.90815 23.0645 7.62821 23.7561 8.75016 23.7561C9.61256 23.7561 10.475 23.6121 11.0209 23.324L10.1585 27.0332C9.29607 27.1772 8.43367 27.4652 7.59974 27.4652C4.32263 27.4652 2.05193 26.1708 2.05193 22.609C2.05193 21.1722 2.33996 19.7622 2.62631 18.3255L4.06308 12.0593H0.623535L1.34359 8.54436ZM15.8905 8.54436H20.7467L16.7495 26.9411H11.8933L15.8888 8.54273M17.5851 0.580196H22.4413L21.4366 5.15171H16.6072L17.5851 0.580196ZM35.1177 12.6822C34.113 12.1078 32.9911 11.6775 31.5509 11.6775C27.6995 11.6775 25.5728 15.2443 25.5728 18.6637C25.5728 21.0784 26.4352 23.52 29.7123 23.52C30.8627 23.52 32.415 23.2319 33.5638 22.5152L32.9894 26.3667C31.5526 27.0867 30.0003 27.2291 28.4178 27.2291C23.704 27.2291 20.5692 24.0977 20.5692 19.2381C20.5692 12.8279 24.8527 7.96832 31.4069 7.96832C33.2489 7.96832 34.9737 8.25633 36.2631 8.68837L35.1177 12.6822ZM41.9633 15.2443L48.6616 8.54605H54.9278L46.1028 16.9691L51.6507 26.9444H46.2469L41.533 17.1148H41.389L39.4046 26.9444H34.6907L40.411 0.151489H45.0964L41.9633 15.2443ZM72.0317 8.54605H75.4528L76.3152 4.69459L81.4611 2.96979L80.3107 8.37357H84.5942L83.8742 11.9404H79.5906L77.8659 19.9314C77.7218 20.5058 77.5778 21.0818 77.5778 21.7734C77.5778 22.9238 78.2979 23.6154 79.4198 23.6154C80.2822 23.6154 81.1446 23.4714 81.6905 23.1833L80.8281 26.8925C79.9658 27.0365 79.1034 27.3245 78.2694 27.3245C74.9923 27.3245 72.7216 26.0301 72.7216 22.4683C72.7216 21.0315 73.0096 19.6216 73.296 18.1848L74.7328 11.9186H71.3116L72.0317 8.54605Z" fill="#F5F5F5" fill-opacity="0.44"/>
<path id="Vector_2" d="M70.4793 15.127C70.4793 10.4132 67.4902 8.14079 62.9186 8.14079C56.9405 8.14079 52.5129 13.6886 52.5129 19.4106C52.5129 24.8144 56.0797 27.4016 61.3379 27.4016C63.3222 27.4016 65.3334 26.9695 67.1737 26.3968L67.7481 22.5454C65.906 23.4078 64.0389 23.8398 62.0546 23.8398C59.0655 23.8398 57.1984 22.6894 56.9087 19.8443V19.1243C56.9087 17.8298 57.1967 16.5655 57.6287 15.4151C58.4911 13.1444 59.8994 11.4196 62.6306 11.4196C64.615 11.4196 65.6197 12.57 65.6197 14.551C65.6197 14.983 65.6197 15.4134 65.4757 15.8455H58.9215C58.4894 17.2822 58.4894 18.2602 58.3471 19.1226H69.6169C70.3369 17.8281 70.4793 16.5353 70.4793 15.127Z" fill="#F5F5F5" fill-opacity="0.44"/>
<path id="Vector_3" d="M86.7209 10.5572L87.1529 8.57283H91.5805L91.1484 10.9876C92.4428 9.14555 94.5695 8.1408 96.8419 8.1408C98.9686 8.1408 101.269 9.43524 101.556 11.7076H101.717C103.011 9.2929 105.568 8.1408 108.127 8.1408C110.829 8.1408 113.273 10.4115 113.273 13.1427C113.273 14.8675 112.841 16.7095 112.41 18.1446L110.426 26.9696H105.57L107.554 18.0006C107.842 16.8502 108.128 15.1539 108.128 14.0051C108.128 12.5684 107.124 11.7344 105.858 11.7344C102.581 11.7344 101.718 15.5859 101.144 18.1446L99.3018 26.8255H94.4456L96.43 17.8566C96.718 16.7062 97.0043 15.0099 97.0043 13.8611C97.0043 12.4243 95.9996 11.5904 94.7336 11.5904C91.4565 11.5904 90.5941 15.4419 90.0198 18.0006L88.1778 26.6815H83.3215L86.7209 10.5572ZM145.305 12.2519C144.731 11.9638 143.463 11.5318 142.174 11.5318C140.737 11.5318 138.897 11.9638 138.897 13.3738C138.897 15.6445 145.163 16.5052 145.163 21.0768C145.163 25.933 141.023 27.343 136.884 27.343C134.9 27.343 133.032 27.0549 131.336 26.1925L132.341 22.3411C133.778 23.0611 135.044 23.7778 136.912 23.7778C138.493 23.7778 140.19 23.2035 140.19 21.7935C140.19 18.8044 133.923 18.5164 133.923 13.9448C133.923 9.6613 138.063 8.10901 141.914 8.10901C143.639 8.10901 145.481 8.39702 146.342 8.68336L145.305 12.2519ZM148.298 8.54436H151.719L152.581 4.6929L157.727 2.96811L156.577 8.37189H160.86L160.14 11.9387H155.853L154.129 19.9297C153.985 20.3617 153.985 21.0801 153.985 21.7717C153.985 22.9221 154.705 23.6137 155.827 23.6137C156.689 23.6137 157.551 23.4697 158.097 23.1817L157.235 26.8909C156.372 27.0349 155.51 27.3229 154.676 27.3229C151.399 27.3229 149.128 26.0284 149.128 22.4666C149.128 21.0299 149.416 19.6199 149.703 18.1831L151.139 11.9169H147.717L148.298 8.54436ZM180.667 10.9893L181.099 8.57451H185.67L184.95 11.9956H185.094C185.957 10.0113 188.372 8.14417 190.498 8.14417C191.073 8.14417 191.793 8.14417 192.34 8.28818L191.336 13.0021C190.761 12.8581 190.041 12.714 189.494 12.714C186.072 12.714 184.492 15.7031 183.8 18.6922L182.075 26.9712H177.361L180.667 10.9893Z" fill="#F5F5F5" fill-opacity="0.44"/>
<path id="Vector_4" d="M177.39 15.127C177.39 10.4132 174.401 8.14079 169.829 8.14079C163.851 8.14079 159.424 13.6886 159.424 19.4106C159.424 24.8144 162.99 27.4016 168.249 27.4016C170.233 27.4016 172.244 26.9695 174.084 26.3968L174.659 22.5454C172.817 23.4078 170.95 23.8398 168.965 23.8398C165.976 23.8398 164.109 22.6894 163.819 19.8443V19.1243C163.819 17.8298 164.107 16.5655 164.539 15.4151C165.402 13.1444 166.81 11.4196 169.541 11.4196C171.526 11.4196 172.53 12.57 172.53 14.551C172.53 14.983 172.53 15.4134 172.386 15.8455H165.832C165.4 17.2822 165.4 18.2602 165.258 19.1226H176.528C177.248 17.8281 177.39 16.5353 177.39 15.127Z" fill="#F5F5F5" fill-opacity="0.44"/>
</g>
</svg>
