<svg width="184" height="42" viewBox="0 0 184 42" fill="none" xmlns="http://www.w3.org/2000/svg">
<g id="Group 1000001677">
<path id="Vector" d="M57.4409 6.5206C56.7665 4.01027 54.7807 2.02449 52.2704 1.35008C47.7368 0.113647 29.4901 0.113647 29.4901 0.113647C29.4901 0.113647 11.2434 0.151115 6.70982 1.38754C4.19949 2.06196 2.21371 4.04774 1.53929 6.55807C0.340332 11.0916 0.340332 20.5709 0.340332 20.5709C0.340332 20.5709 0.340332 30.0502 1.57676 34.6213C2.25118 37.1316 4.23696 39.1174 6.74728 39.7918C11.2809 41.0282 29.5276 41.0282 29.5276 41.0282C29.5276 41.0282 47.7743 41.0282 52.3078 39.7918C54.8182 39.1174 56.8039 37.1316 57.4784 34.6213C58.7148 30.0877 58.7148 20.5709 58.7148 20.5709C58.7148 20.5709 58.6773 11.0916 57.4409 6.5206Z" fill="#F5F5F5" fill-opacity="0.44"/>
<path id="Vector_2" d="M38.8198 20.5709L23.6829 11.8035V29.3383L38.8198 20.5709Z" fill="#141821"/>
<path id="Vector_3" d="M85.0167 37.3189C83.8552 36.5321 83.0309 35.3331 82.5439 33.6846C82.0568 32.036 81.832 29.8629 81.832 27.1277V23.4185C81.832 20.6833 82.0942 18.4353 82.6563 16.7867C83.2183 15.1007 84.08 13.9017 85.279 13.1523C86.4779 12.403 88.0141 11.9908 89.925 11.9908C91.7983 11.9908 93.3345 12.3655 94.4585 13.1523C95.5826 13.9392 96.4443 15.1381 96.9689 16.7867C97.4934 18.4353 97.7557 20.6459 97.7557 23.381V27.0903C97.7557 29.8254 97.4934 31.9985 96.9689 33.6471C96.4443 35.2957 95.62 36.4946 94.4585 37.2814C93.297 38.0308 91.7234 38.4429 89.7751 38.4429C87.7518 38.4804 86.1782 38.0683 85.0167 37.3189ZM91.4986 33.3099C91.8358 32.4856 91.9857 31.0993 91.9857 29.2259V21.2453C91.9857 19.4094 91.8358 18.0606 91.4986 17.2363C91.1614 16.3746 90.5994 15.9624 89.8126 15.9624C89.0257 15.9624 88.5012 16.3746 88.164 17.2363C87.8268 18.0981 87.6769 19.4094 87.6769 21.2453V29.2259C87.6769 31.0993 87.8268 32.4856 88.1265 33.3099C88.4263 34.1342 88.9883 34.5463 89.8126 34.5463C90.5994 34.5463 91.1614 34.1342 91.4986 33.3099ZM173.627 27.2027V28.514L173.777 32.2233C173.89 33.0476 174.077 33.6471 174.377 34.0218C174.677 34.3964 175.164 34.5838 175.801 34.5838C176.662 34.5838 177.262 34.2466 177.562 33.5722C177.899 32.8977 178.049 31.7737 178.086 30.2375L183.069 30.5373C183.107 30.7621 183.107 31.0618 183.107 31.4365C183.107 33.797 182.47 35.5579 181.158 36.7194C179.847 37.8809 178.049 38.4804 175.688 38.4804C172.841 38.4804 170.855 37.5812 169.731 35.8202C168.607 34.0592 168.007 31.2866 168.007 27.5774V23.0438C168.007 19.2221 168.607 16.412 169.768 14.651C170.967 12.8901 172.991 11.9908 175.838 11.9908C177.824 11.9908 179.323 12.3655 180.372 13.0774C181.421 13.7893 182.17 14.9133 182.62 16.4495C183.069 17.9857 183.257 20.0838 183.257 22.7815V27.1652H173.627V27.2027ZM174.377 16.412C174.077 16.7867 173.89 17.3487 173.777 18.173C173.665 18.9973 173.627 20.2337 173.627 21.9197V23.7557H177.824V21.9197C177.824 20.2712 177.786 19.0347 177.674 18.173C177.562 17.3112 177.374 16.7118 177.075 16.3746C176.775 16.0373 176.325 15.85 175.726 15.85C175.089 15.8875 174.639 16.0748 174.377 16.412ZM71.0038 26.7156L64.447 3.0361H70.1796L72.4651 13.7518C73.0646 16.412 73.4767 18.6601 73.7764 20.496H73.9263C74.1137 19.1472 74.5633 16.9366 75.2377 13.7893L77.5981 3.0361H83.3307L76.6989 26.6781V38.0308H71.0413V26.7156H71.0038Z" fill="#F5F5F5" fill-opacity="0.44"/>
<path id="Vector_4" d="M116.34 12.4779V38.0682H111.844L111.357 34.921H111.244C110.008 37.2814 108.172 38.4804 105.737 38.4804C104.051 38.4804 102.777 37.9184 101.99 36.7943C101.166 35.6703 100.791 33.9468 100.791 31.5863V12.4779H106.561V31.2491C106.561 32.3732 106.673 33.1975 106.936 33.6845C107.198 34.1716 107.61 34.3964 108.172 34.3964C108.659 34.3964 109.146 34.2465 109.596 33.9468C110.046 33.6471 110.383 33.2349 110.608 32.7853V12.4779H116.34Z" fill="#F5F5F5" fill-opacity="0.44"/>
<path id="Vector_5" d="M145.902 12.4779V38.0682H141.406L140.919 34.921H140.806C139.57 37.2814 137.734 38.4804 135.299 38.4804C133.612 38.4804 132.339 37.9184 131.552 36.7943C130.727 35.6703 130.353 33.9468 130.353 31.5863V12.4779H136.123V31.2491C136.123 32.3732 136.235 33.1975 136.497 33.6845C136.76 34.1716 137.172 34.3964 137.734 34.3964C138.221 34.3964 138.708 34.2465 139.158 33.9468C139.607 33.6471 139.944 33.2349 140.169 32.7853V12.4779H145.902Z" fill="#F5F5F5" fill-opacity="0.44"/>
<path id="Vector_6" d="M132.001 7.6821H126.269V38.0683H120.649V7.6821H114.916V3.03613H131.964V7.6821H132.001ZM164.935 16.5619C164.598 14.9508 164.036 13.7893 163.249 13.04C162.462 12.3281 161.413 11.9534 160.027 11.9534C158.978 11.9534 157.966 12.2531 157.067 12.8526C156.13 13.4521 155.456 14.2389 154.931 15.2131H154.894V1.72476H149.349V38.0308H154.107L154.707 35.5954H154.819C155.269 36.4572 155.943 37.1316 156.805 37.6562C157.712 38.1531 158.73 38.411 159.765 38.4055C161.713 38.4055 163.137 37.5063 164.073 35.7078C164.973 33.9094 165.46 31.0993 165.46 27.3151V23.2686C165.46 20.4211 165.272 18.173 164.935 16.5619ZM159.652 27.0154C159.652 28.8887 159.577 30.35 159.427 31.3991C159.278 32.4482 159.015 33.1975 158.641 33.6471C158.266 34.0967 157.779 34.3215 157.179 34.3215C156.692 34.3215 156.28 34.2091 155.868 33.9843C155.456 33.7595 155.156 33.4223 154.894 32.9727V18.4353C155.081 17.7234 155.418 17.1614 155.906 16.7118C156.393 16.2622 156.88 16.0374 157.442 16.0374C158.041 16.0374 158.491 16.2622 158.791 16.7118C159.128 17.1614 159.315 17.9482 159.465 19.0348C159.577 20.1213 159.652 21.6575 159.652 23.6807V27.0154Z" fill="#F5F5F5" fill-opacity="0.44"/>
</g>
</svg>
