<svg width="128" height="87" viewBox="0 0 128 87" fill="none" xmlns="http://www.w3.org/2000/svg">
<g id="Group">
<path id="Vector" fill-rule="evenodd" clip-rule="evenodd" d="M127.914 86.732V0.3396H0.13501V86.732H127.914Z" fill="#F5F5F5" fill-opacity="0.44"/>
<path id="Vector_2" fill-rule="evenodd" clip-rule="evenodd" d="M87.9168 58.4277C87.9168 58.4488 85.2245 61.9837 88.7006 61.3599C88.7006 61.3199 89.0459 61.1796 89.1194 61.1796C90.5029 60.2301 89.621 58.07 87.9168 58.4277ZM14.4478 60.9695C14.4478 60.9906 12.5328 61.6369 12.3539 61.7518C11.0307 62.5799 9.49224 65.2831 9.2494 66.7888C9.08218 66.7888 9.07272 67.9885 9.55185 68.2262C10.7217 68.8072 14.8768 58.7927 16.3113 64.5001C16.6406 64.4972 16.549 67.6722 16.4967 67.6722C16.2844 70.4401 16.5585 75.467 18.5993 71.0814C18.7309 71.0814 19.5205 68.8035 19.6732 68.8035C19.6725 68.4116 22.0478 64.8462 22.4193 64.8462C24.0981 63.1623 23.8029 68.0118 23.8043 68.7359C23.7062 68.7359 23.672 70.7724 23.5688 70.7724C23.5731 73.3244 25.0789 73.2676 25.7856 71.3061C26.2131 71.3061 28.0925 65.4314 29.9058 65.43C29.9174 68.0866 29.0675 72.1967 32.6737 72.1909C32.6737 72.1712 35.246 70.8829 35.2482 71.7067C37.939 73.0473 40.0395 72.4279 42.1901 69.9574C42.1879 68.8595 43.5715 71.9357 43.5715 71.9895C45.4131 73.1266 47.3129 71.2072 48.3606 71.2028C49.0739 73.6835 55.3651 71.4515 55.3651 70.1704C55.5221 70.1689 55.3687 72.2338 55.3694 72.6257C54.8925 72.6257 52.3769 72.9921 52.3769 73.3498C47.7841 74.3524 49.1313 82.4824 54.6657 80.2314C54.6657 80.1928 56.5233 79.007 56.8163 77.9521C57.4139 77.9462 56.9413 74.1677 58.1897 76.0319C58.8368 76.0305 60.4712 77.7754 60.1048 75.3092C60.0844 75.3107 59.2032 74.1132 58.7851 74.1147C58.5278 73.9133 57.9563 73.3382 57.6459 73.3382C57.3667 72.7674 57.1042 67.8722 57.094 66.6325C55.0444 66.6383 53.4202 70.1129 51.5917 70.1173C51.5924 70.2453 50.9933 70.2511 50.9933 70.3572C49.0317 70.3616 50.4407 67.5443 50.5687 67.5443C50.5658 66.1083 55.5941 62.2702 55.5941 65.0192C57.8269 66.1083 57.9352 61.293 53.9713 61.9692C53.9713 62.0274 52.8938 62.2746 52.8945 62.3894C51.0093 63.2299 49.396 65.0039 48.5322 66.9488C48.2254 66.9517 47.8575 69.4055 46.9203 69.407C43.1847 71.6078 45.2815 67.862 44.6374 65.8197C44.1713 65.8197 42.1836 64.6237 42.1836 66.602C41.0668 67.1618 39.2099 71.7045 37.3399 70.0853C36.4413 70.0853 37.4592 66.1309 38.2902 66.1309C38.2865 64.495 43.0175 63.68 43.0175 64.5648C45.9599 64.5604 43.429 61.3527 39.8395 62.3567C39.8395 62.4403 36.5518 63.9475 36.5518 64.8774C36.378 65.0919 36.2152 65.1944 36.0734 65.4169C35.4481 66.4035 34.777 70.15 33.5083 70.1529C33.5091 70.3303 32.132 70.7128 32.1306 69.9174C31.8659 69.9174 31.8725 67.1626 32.0055 67.1626C32.0033 65.8393 32.0593 63.885 30.6808 63.5724C30.6794 63.4219 29.6026 63.3281 29.6026 63.5142C28.4189 63.709 26.3432 66.8143 26.136 66.8143C26.136 66.9154 25.8503 67.3254 25.7179 67.4148C25.715 66.2108 25.6292 64.6106 25.1116 63.5833C22.5516 58.4641 19.4311 66.2886 18.5899 66.2901C19.0428 63.1507 17.7494 60.5725 14.4478 60.9695ZM66.5472 62.0034C66.5472 62.0245 64.0934 62.3938 64.0934 62.6664C61.0492 62.6737 57.7556 69.764 60.8776 71.655C61.8286 72.236 62.9126 72.196 64.0519 72.0084C64.0519 71.9655 65.2494 71.6332 65.2487 71.4675C66.0266 71.4646 67.3848 69.3699 67.8203 69.3655C67.8348 76.5779 76.4424 69.0064 76.4359 66.2341C76.6489 66.2341 76.8009 65.4547 76.9739 65.4547C76.971 64.1496 79.3397 64.3852 80.146 64.969C79.9628 66.5213 75.0196 70.973 77.1651 71.3831C77.1651 71.5721 79.0809 71.426 79.0809 71.6187C80.3758 71.7823 81.4438 72.4519 81.2424 74.0696C80.4187 73.9431 77.4908 73.8522 77.0517 74.7356C75.2457 75.7905 75.1955 77.0287 75.2028 78.8107C75.514 78.8078 76.8001 80.6342 78.5596 80.4808C78.5596 80.4611 81.3726 79.8889 81.3726 79.3975C81.6082 79.3975 82.9859 77.8183 82.9845 77.2984C84.5964 77.9302 85.7276 76.4536 84.2997 75.7389C84.2997 75.6924 83.7399 75.2758 83.6395 75.1413C83.3654 75.1413 83.4861 72.209 83.0957 72.209C82.5504 70.6626 79.8967 69.3408 79.9163 69.3408C83.1044 65.9927 83.6214 61.999 77.0873 62.4607C77.0873 62.4803 75.5322 62.9238 75.5322 63.6603C75.4013 63.6603 74.3107 66.1781 74.1006 66.1781C74.102 67.1924 69.3195 73.6123 69.9113 67.7428C69.9324 67.7428 70.3853 64.5008 68.0507 65.7106C68.0507 67.0797 63.6099 70.9178 62.0707 69.8556C61.268 69.303 62.0387 66.141 62.8421 66.141C62.8385 64.4114 68.3474 63.4771 68.3474 64.5735C70.8921 64.5713 69.0759 61.8005 66.5472 62.0034ZM113.852 61.9692C113.852 62.0659 112.474 62.1662 112.475 62.3313C111.493 62.5428 110.156 63.6632 109.427 65.0919C108.435 65.5877 108.517 70.0635 106.204 70.0679C106.207 70.4612 105.078 70.6386 105.004 69.5313C104.767 69.5313 105.207 67.1967 104.94 67.1967C104.913 66.9095 104.748 65.6997 104.578 65.6997C103.529 63.1994 98.891 64.3125 98.891 66.3701C98.8212 66.3701 98.6213 63.1979 98.225 63.1979C97.2878 62.7333 97.4667 61.6958 95.7683 62.3647C95.7683 62.3858 94.8464 62.958 94.6922 63.0859C93.4497 63.0889 89.6014 71.9386 89.1383 70.102C88.7878 70.102 89.1397 65.1915 89.1877 65.1915C89.1746 59.4885 83.5632 66.0451 83.5632 67.1197C84.1368 67.8809 86.1661 66.5925 86.9738 66.2137C86.6881 68.3484 86.5819 74.3531 90.2201 72.6155C90.7 72.3872 92.3533 70.2751 92.3715 70.2751C92.7125 69.5611 94.9729 64.9399 95.6549 64.9399C95.6549 64.0253 96.595 65.1173 96.6131 65.1173C96.8531 65.9724 95.2724 74.2143 98.0047 72.7783C98.0047 71.1395 102.446 63.1747 102.845 68.0379C102.869 68.0379 102.83 71.9888 103.513 71.9888C105.153 74.6243 109.554 69.0362 109.559 71.4987C109.811 71.4987 110.149 72.2156 110.459 72.2141C111.206 73.7221 116.745 72.6489 116.745 72.1414C118.761 72.1371 120.132 67.2156 116.501 69.6876C115.845 71.0051 110.991 71.3933 110.991 69.5189C114.388 69.5117 114.911 68.5025 117.095 67.4105C118.764 67.4112 118.304 61.4225 113.852 61.9692ZM114.095 64.0638C117.927 63.8581 114.676 68.5171 110.869 67.4832C110.993 65.6786 112.664 64.1155 114.095 64.0638ZM54.5959 74.8424C57.1253 74.668 53.1992 80.1107 52.1471 78.0204C50.3986 76.5263 53.8652 74.8846 54.5959 74.8424ZM79.688 75.9897C82.461 75.7186 79.6436 78.0291 78.8548 78.3868C78.8548 79.1423 77.2575 77.971 77.2371 77.971C76.9601 76.6368 78.8759 76.0574 79.688 75.9897ZM23.4961 48.4438C20.6293 48.3783 20.7013 43.8866 20.7013 43.8866L20.6293 36.901H11.7454V44.0996C11.7454 44.0996 11.2037 55.9056 23.6226 55.883C35.1551 55.8605 35.2664 44.0117 35.2664 44.0117V11.8453H26.0262V44.0124C26.0262 44.0117 26.3643 48.5092 23.4961 48.4438ZM45.9534 54.9902L47.6576 48.8073L57.1784 48.7891L58.6783 54.9902H67.6603L56.4324 11.7398H48.6616L37.0106 54.9902H45.9534Z" fill="#141821"/>
<path id="Vector_3" fill-rule="evenodd" clip-rule="evenodd" d="M52.4527 25.9734L55.5594 41.7985H49.3801L52.4527 25.9734Z" fill="#F5F5F5" fill-opacity="0.44"/>
<path id="Vector_4" fill-rule="evenodd" clip-rule="evenodd" d="M90.9036 54.9487V46.7905H80.5286L90.9036 19.9345V11.7565H69.9084V19.9963H81.2527L69.9084 48.752V54.9487H90.9036ZM115.885 54.9487V46.7905H105.51L115.885 19.9345V11.7565H94.8908V19.9963H106.234L94.8908 48.752V54.9487H115.885Z" fill="#141821"/>
</g>
</svg>
