<svg width="189" height="62" viewBox="0 0 189 62" fill="none" xmlns="http://www.w3.org/2000/svg">
<g id="Group 1000001676">
<path id="Vector" d="M31.342 0.736084C14.5076 0.736084 0.913574 14.3703 0.913574 31.1661C0.913574 47.9988 14.5445 61.5962 31.3436 61.5962C48.1763 61.5962 61.7737 47.9653 61.7737 31.1661C61.7737 14.367 48.1428 0.736084 31.3436 0.736084H31.342ZM45.3027 44.653C44.7568 45.5623 43.5947 45.8168 42.6854 45.2726C35.5233 40.9104 26.5427 39.9308 15.926 42.3254C14.9079 42.5431 13.8897 41.9235 13.672 40.907C13.4543 39.8906 14.0739 38.8708 15.0904 38.6531C26.6884 35.9989 36.6486 37.1259 44.6463 42.0357C45.5556 42.5816 45.8453 43.7437 45.2994 44.653H45.3027ZM49.0102 36.364C48.3203 37.4909 46.8668 37.8175 45.7381 37.1644C37.5579 32.1474 25.0908 30.6939 15.4186 33.6009C14.1459 33.9643 12.8398 33.2744 12.4714 32.0369C12.108 30.7642 12.7979 29.4581 14.0706 29.0897C25.1227 25.7456 38.8641 27.3448 48.2818 33.1086C49.3702 33.7617 49.7001 35.2186 49.0085 36.3439L49.0102 36.364ZM49.3368 27.7115C39.5205 21.8941 23.3426 21.3482 13.9634 24.1849C12.4563 24.6571 10.8738 23.783 10.3999 22.2927C9.92604 20.8023 10.8018 19.2031 12.2922 18.7292C23.0529 15.4571 40.9405 16.1119 52.2103 22.8017C53.555 23.6022 53.992 25.3471 53.1916 26.6917C52.4648 28.0732 50.6831 28.5103 49.3401 27.7099L49.3368 27.7115Z" fill="#F5F5F5" fill-opacity="0.44"/>
<path id="Vector_2" d="M77.6039 30.2557C72.4138 29.0387 71.519 28.1438 71.519 26.3184C71.519 24.6003 73.1297 23.4549 75.5278 23.4549C77.8544 23.4549 80.181 24.3497 82.615 26.1394C82.6866 26.211 82.794 26.211 82.8656 26.211C82.9729 26.211 83.0445 26.1394 83.0803 26.0678L85.6217 22.4884C85.6721 22.4166 85.6928 22.3281 85.6794 22.2414C85.6661 22.1547 85.6197 22.0765 85.5501 22.0231C82.6508 19.6965 79.3936 18.5869 75.5994 18.5869C70.0156 18.5869 66.1141 21.9515 66.1141 26.7479C66.1141 31.9022 69.4787 33.7276 75.3131 35.1236C80.2526 36.269 81.1117 37.2354 81.1117 38.9177C81.1117 40.8148 79.4294 41.996 76.709 41.996C73.7024 41.996 71.2326 40.9938 68.4765 38.5956C68.4049 38.524 68.2975 38.524 68.2259 38.524C68.1186 38.524 68.047 38.5598 68.0112 38.6314L65.1835 41.996C65.0761 42.1392 65.0761 42.3539 65.2193 42.4613C68.4407 45.3248 72.378 46.8281 76.6374 46.8281C82.6508 46.8281 86.5523 43.5351 86.5523 38.4524C86.4807 34.1572 83.9036 31.7948 77.6039 30.2557ZM100.118 25.1372C97.5052 25.1372 95.3575 26.1752 93.6036 28.287V25.9246C93.6036 25.7457 93.4605 25.6025 93.2815 25.6025H88.6641C88.4852 25.6025 88.342 25.7457 88.342 25.9246V52.2688C88.342 52.4477 88.4852 52.5909 88.6641 52.5909H93.2815C93.4605 52.5909 93.6036 52.4477 93.6036 52.2688V43.9646C95.3575 45.9333 97.5052 46.8997 100.118 46.8997C104.95 46.8997 109.89 43.1772 109.89 36.0184C109.854 28.8955 104.95 25.1372 100.118 25.1372ZM104.485 36.0184C104.485 39.6694 102.23 42.175 99.0443 42.175C95.8587 42.175 93.4963 39.5262 93.4963 36.0184C93.4963 32.5107 95.8944 29.8619 99.0443 29.8619C102.194 29.8619 104.485 32.4391 104.485 36.0184ZM122.453 25.1372C116.225 25.1372 111.322 29.9335 111.322 36.09C111.322 42.175 116.189 46.9355 122.382 46.9355C128.646 46.9355 133.549 42.1392 133.549 36.0184C133.549 29.9335 128.681 25.1372 122.453 25.1372ZM122.453 42.2107C119.125 42.2107 116.619 39.5262 116.619 36.0184C116.619 32.4749 119.053 29.8977 122.382 29.8977C125.711 29.8977 128.252 32.5823 128.252 36.1258C128.216 39.6336 125.782 42.2107 122.453 42.2107ZM146.865 25.5667H141.782V20.3408C141.782 20.1618 141.639 20.0187 141.46 20.0187H136.842C136.663 20.0187 136.52 20.1618 136.52 20.3408V25.5667H134.301C134.122 25.5667 133.979 25.7099 133.979 25.8888V29.8619C133.979 30.0409 134.122 30.1841 134.301 30.1841H136.52V40.4927C136.52 44.6447 138.596 46.7565 142.677 46.7565C144.323 46.7565 145.719 46.3986 147.008 45.6827C147.115 45.6111 147.187 45.5038 147.187 45.3964V41.6023C147.187 41.4949 147.115 41.3875 147.044 41.3159C146.936 41.2443 146.829 41.2443 146.721 41.3159C145.827 41.7812 144.968 41.9602 144.001 41.9602C142.498 41.9602 141.854 41.2801 141.854 39.7768V30.2199H146.936C147.115 30.2199 147.258 30.0767 147.258 29.8977V25.9246C147.223 25.7099 147.079 25.5667 146.865 25.5667ZM164.654 25.6025V24.9582C164.654 23.0611 165.37 22.2379 166.981 22.2379C167.947 22.2379 168.735 22.4169 169.594 22.7032C169.701 22.739 169.808 22.7032 169.916 22.6674C169.987 22.5958 170.059 22.4884 170.059 22.3811V18.4795C170.059 18.3364 169.952 18.1932 169.808 18.1574C168.878 17.8711 167.732 17.6205 165.943 17.6205C161.647 17.6205 159.392 20.0187 159.392 24.6003V25.5667H157.173C156.994 25.5667 156.815 25.7099 156.815 25.8888V29.8977C156.815 30.0767 156.958 30.2199 157.173 30.2199H159.392V46.1123C159.392 46.2912 159.536 46.4344 159.715 46.4344H164.332C164.511 46.4344 164.654 46.2912 164.654 46.1123V30.2199H168.985L175.607 46.1123C174.855 47.7946 174.104 48.1167 173.101 48.1167C172.278 48.1167 171.419 47.8661 170.56 47.4008C170.488 47.365 170.381 47.365 170.274 47.365C170.202 47.4008 170.095 47.4724 170.059 47.544L168.484 50.9802C168.412 51.1592 168.484 51.3381 168.627 51.4097C170.274 52.3046 171.741 52.6625 173.567 52.6625C177.003 52.6625 178.864 51.0518 180.546 46.7923L188.6 26.032C188.636 25.9246 188.636 25.8172 188.564 25.7099C188.493 25.6025 188.385 25.5667 188.278 25.5667H183.446C183.303 25.5667 183.159 25.6741 183.124 25.7815L178.184 39.8842L172.779 25.7457C172.743 25.6025 172.6 25.5309 172.457 25.5309H164.654V25.6025ZM154.346 25.5667H149.728C149.549 25.5667 149.406 25.7099 149.406 25.8888V46.1123C149.406 46.2912 149.549 46.4344 149.728 46.4344H154.346C154.524 46.4344 154.668 46.2912 154.668 46.1123V25.9246C154.703 25.7099 154.524 25.5667 154.346 25.5667Z" fill="#F5F5F5" fill-opacity="0.44"/>
<path id="Vector_3" d="M152.055 23.0255C153.893 23.0255 155.384 21.5351 155.384 19.6967C155.384 17.8582 153.893 16.3679 152.055 16.3679C150.216 16.3679 148.726 17.8582 148.726 19.6967C148.726 21.5351 150.216 23.0255 152.055 23.0255Z" fill="#F5F5F5" fill-opacity="0.44"/>
</g>
</svg>
