<svg width="171" height="92" viewBox="0 0 171 92" fill="none" xmlns="http://www.w3.org/2000/svg">
<g id="Group 1000001675">
<path id="Vector" d="M169.876 67.3116C169.875 67.8862 169.647 68.4369 169.24 68.8431C168.834 69.2492 168.283 69.4776 167.709 69.4782C167.424 69.479 167.142 69.423 166.879 69.3136C166.616 69.2042 166.378 69.0436 166.178 68.8411C165.976 68.6409 165.815 68.4025 165.706 68.1397C165.597 67.8769 165.542 67.595 165.543 67.3105C165.543 66.7307 165.768 66.1873 166.178 65.7793C166.585 65.369 167.129 65.1451 167.709 65.1451C168.288 65.1451 168.829 65.369 169.24 65.7793C169.442 65.9802 169.602 66.219 169.711 66.4819C169.82 66.7449 169.876 67.0269 169.876 67.3116ZM167.709 64.8864C167.066 64.8868 166.45 65.1424 165.995 65.5969C165.541 66.0515 165.285 66.6678 165.285 67.3105C165.285 67.9609 165.538 68.5697 165.996 69.024C166.22 69.2503 166.487 69.4297 166.782 69.5518C167.076 69.6739 167.392 69.7362 167.71 69.7352C168.358 69.7352 168.966 69.484 169.424 69.024C169.651 68.8003 169.83 68.5334 169.953 68.2391C170.075 67.9449 170.137 67.6291 170.135 67.3105C170.136 66.9918 170.074 66.6761 169.952 66.3817C169.83 66.0874 169.65 65.8202 169.424 65.5959C169.199 65.3704 168.931 65.1917 168.637 65.0699C168.343 64.9482 168.027 64.8858 167.709 64.8864Z" fill="#F5F5F5" fill-opacity="0.44"/>
<path id="Vector_2" d="M167.323 66.137V67.0143C167.323 67.0143 168.235 67.0744 168.235 66.5808C168.235 66.0073 167.323 66.1312 167.323 66.137ZM167.323 67.5686V68.9633H166.733V65.6422C167.46 65.6422 168.746 65.4518 168.746 66.5652C168.746 67.2764 168.217 67.4616 168.217 67.4616L168.927 68.9638H168.341L167.661 67.5698L167.323 67.5686ZM128.196 55.6472V45.4409C128.196 45.4409 128.05 40.8063 123.402 40.8063C120.489 40.8063 118.606 43.3814 118.606 45.4409C118.606 48.7192 121.609 50.0727 123.402 50.0727C124.475 50.0727 125.194 49.8875 126.791 48.7637C126.791 52.7908 126.744 55.1426 126.791 55.1316C125.725 55.4128 125.337 55.6368 123.402 55.6368C117.492 55.6368 112.851 50.9645 112.851 45.4404C112.851 38.4198 119.149 35.244 123.402 35.244C128.728 35.244 133.951 39.3544 133.951 45.4404C133.951 49.1856 133.961 49.093 133.961 50.1225V55.653L128.196 55.6472ZM85.774 46.258V35.7573L91.5881 33.2301V47.4368C91.5881 58.5788 73.0835 58.5788 73.0835 47.6243V41.3207L78.8958 38.7508V46.3124C78.8952 51.5582 85.774 51.5026 85.774 46.258Z" fill="#F5F5F5" fill-opacity="0.44"/>
<path id="Vector_3" d="M111.933 55.8781C111.933 55.8781 108.994 56.0592 107.092 55.0361C103.602 53.1629 103.988 47.6892 103.988 47.6892V37.0159H100.212V31.394H103.988V27.9306L109.803 25.3109V31.5827H113.58V37.1085H109.803V48.1081C109.803 48.1081 109.901 50.7255 111.934 50.7255L111.933 55.8781ZM93.1373 35.7469H98.9496V55.6322H93.1373V35.7469ZM93.1373 34.2053L98.9496 34.1665V30.0833L93.1373 32.6127V34.2053Z" fill="#F5F5F5" fill-opacity="0.44"/>
<path id="Vector_4" d="M146.074 34.391V40.2912C141.811 40.2912 142.002 42.8177 142.002 45.1591V55.6472H136.189V41.7883C136.189 34.579 142.102 34.391 146.074 34.391ZM135.159 14.9281C134.976 14.5317 134.222 14.4773 133.387 14.7684L133.151 14.2534L133.397 14.1388L133.192 6.99436L127.897 2.19302L127.649 2.3076L127.411 1.79257C128.176 1.34641 128.623 0.738791 128.444 0.34355C128.231 -0.110137 127.275 -0.114767 126.306 0.331398C125.332 0.781613 124.716 1.51191 124.922 1.96444C125.103 2.36026 125.856 2.41524 126.692 2.12416L126.932 2.63919L122.506 4.67731L122.27 4.15997C123.032 3.7167 123.484 3.1085 123.3 2.71326C123.09 2.25841 122.133 2.25321 121.162 2.704C120.188 3.14959 119.572 3.87931 119.778 4.33473C119.961 4.73055 120.715 4.78263 121.55 4.49155L121.788 5.006L117.529 6.97121L117.293 6.45618C118.057 6.0077 118.507 5.40008 118.321 5.00427C118.113 4.55174 117.155 4.54653 116.184 4.99269C115.211 5.44291 114.596 6.17263 114.801 6.62516C114.984 7.02156 115.738 7.07595 116.573 6.78487L116.811 7.2999L116.284 7.54063L114.675 12.0532L55.1628 39.1778C52.3446 36.6773 47.5537 36.1455 43.1308 38.186C37.5407 40.7588 34.6652 46.4397 36.7063 50.8713C38.7473 55.3052 44.9334 56.812 50.5235 54.2369C54.5505 52.3799 57.1581 48.9107 57.5423 45.4589L60.489 44.0903C60.6938 44.0098 62.4629 43.382 64.4796 45.4016C65.6572 48.0404 66.7064 50.8852 66.0357 52.6721C65.9141 52.9974 65.5421 53.984 63.5711 54.8607C62.2528 55.4475 61.1035 55.7073 59.647 56.036C57.485 56.5221 54.7907 57.1303 50.6357 59.0434C47.0242 60.706 44.993 63.9119 42.8403 67.3094C39.9602 71.8538 36.6964 77.0023 28.6296 80.7163C26.4792 81.7058 24.4978 81.8413 22.5696 81.1295C16.6427 78.9415 12.07 69.0113 10.5712 65.7504C7.50996 59.1013 3.67908 49.6184 5.75539 43.9965C6.39194 42.2755 7.57882 41.036 9.38374 40.2015C17.5686 36.4326 23.3994 36.7161 28.5387 36.9661C32.3036 37.1455 35.8579 37.3168 39.3508 35.7098C43.5058 33.7978 45.2824 32.3505 46.71 31.1897C47.6561 30.4195 48.3407 29.8639 49.6132 29.2777C51.3134 28.4936 52.9678 28.4056 54.5199 29.0133C56.8705 29.9334 58.496 32.1642 59.2332 33.9483L64.0178 31.9669C62.5375 28.3842 59.6933 25.4781 56.4087 24.1905C53.5338 23.065 50.4367 23.1958 47.4472 24.5742C45.5804 25.4329 44.4936 26.3166 43.4445 27.1702C42.1766 28.2002 40.7437 29.3663 37.1843 31.0057C34.8435 32.0838 32.1734 31.9524 28.7928 31.7904C23.3381 31.5259 16.5536 31.1995 7.22062 35.4974C4.14549 36.9158 2.01941 39.1703 0.899081 42.2032C-1.81379 49.5455 2.12936 59.8015 5.86708 67.9187C8.85887 74.4167 13.6579 83.3626 20.774 85.9869C24.0111 87.1837 27.3825 86.9927 30.7985 85.4216C40.2484 81.0693 44.1105 74.9746 47.214 70.0801C49.093 67.1143 50.5802 64.7713 52.8023 63.7493C56.4614 62.0607 58.7576 61.5434 60.7835 61.0879C62.3807 60.7257 63.8899 60.3872 65.6751 59.5932C68.3001 58.4266 70.0546 56.709 70.8845 54.4892C72.4666 50.2579 70.2861 45.5786 68.362 41.4515L67.9754 40.6147L117.293 17.7428L121.785 19.4881L122.309 19.2451L122.548 19.7601C121.783 20.2057 121.336 20.8139 121.518 21.2091C121.727 21.6628 122.684 21.6669 123.654 21.2213C124.626 20.7705 125.244 20.0408 125.036 19.5882C124.854 19.1924 124.102 19.138 123.267 19.4291L123.029 18.9141L127.286 16.9541L127.524 17.4691C126.762 17.9124 126.313 18.5206 126.495 18.9158C126.704 19.3712 127.661 19.3759 128.631 18.928C129.603 18.4795 130.223 17.7498 130.013 17.2949C129.831 16.8991 129.079 16.8464 128.242 17.1381L128.006 16.6231L132.431 14.5867L132.665 15.1023C131.903 15.5456 131.452 16.1532 131.636 16.549C131.846 17.0021 132.802 17.0073 133.774 16.5588C134.749 16.1132 135.369 15.3812 135.159 14.9281ZM130.802 86.0709C130.802 86.0709 127.967 86.2352 126.12 85.2289C122.829 83.4361 123.125 76.9786 123.125 76.9786V65.6474H119.472V59.978H123.125V57.5632H128.751L128.742 60.1667H132.394V65.7429H128.742V78.3015C128.742 78.3015 128.837 80.9212 130.802 80.9212V86.0709Z" fill="#F5F5F5" fill-opacity="0.44"/>
<path id="Vector_5" d="M84.3574 85.6687C79.4484 91.2733 74.2114 91.1969 72.2467 91.1969C62.265 91.1969 56.1646 82.7221 56.1646 75.1124C56.1646 68.2417 60.7633 60.779 69.7341 59.2946C75.3774 58.3578 80.8622 60.511 84.6838 64.8043C83.4558 65.7059 80.6764 67.8314 80.6764 67.8314C77.6464 65.0496 75.5198 64.1197 72.2467 64.1197C69.6294 64.1197 61.2564 66.2753 61.2564 75.1124C61.2564 80.9218 65.8644 86.1455 72.2467 86.105C77.0336 86.079 79.1226 83.6231 80.4287 82.3957L84.3574 85.6687ZM114.603 74.433V85.8741H120.222V72.7502C120.222 61.6047 102.335 61.6047 102.335 72.5621V85.8741H107.956V74.2467C107.956 69.1895 114.603 69.097 114.603 74.433ZM163.853 64.7129V70.6131C159.733 70.6131 159.922 73.1373 159.922 75.4787V85.884H154.302V72.1067C154.303 65.5421 160.082 64.7129 163.853 64.7129ZM139.003 71.4175C139.003 71.4175 136.736 73.4689 137.816 76.2234L143.807 70.2306C143.807 70.2294 141.594 69.0946 139.003 71.4175ZM140.631 80.8489C140.592 80.8749 141.957 81.1087 142.348 81.1087C145.324 81.1087 146.794 79.0011 146.794 79.0011C146.794 79.0011 151.681 79.015 152.379 79.0034C152.379 79.0034 151.088 82.3685 148.761 83.869C139.803 89.6448 134.136 82.4883 133.022 80.6151C131.347 77.7818 130.436 69.6178 136.787 66.0907C146.342 60.79 151.668 70.0061 151.668 70.0061L140.631 80.8489Z" fill="#F5F5F5" fill-opacity="0.44"/>
<path id="Vector_6" d="M87.994 71.4174C87.994 71.4174 85.7232 73.4665 86.8037 76.2234L92.7959 70.2317C92.7959 70.2317 90.5842 69.0969 87.994 71.4174ZM101.369 79.0045C101.369 79.0045 100.077 82.3702 97.7506 83.8701C88.792 89.6488 83.125 82.4923 82.0116 80.6162C80.3334 77.7835 79.4225 69.6189 85.7759 66.0924C95.3311 60.7905 100.657 70.0049 100.657 70.0049L89.6218 80.8488C89.5842 80.8748 90.947 81.1086 91.3382 81.1086C94.3161 81.1086 95.7825 79.0011 95.7825 79.0011L101.369 79.0045Z" fill="#F5F5F5" fill-opacity="0.44"/>
</g>
</svg>
